<?xml version="1.0" encoding="UTF-8" standalone="no"?>
<!DOCTYPE svg PUBLIC "-//W3C//DTD SVG 1.1//EN" "http://www.w3.org/Graphics/SVG/1.1/DTD/svg11.dtd">
<!-- Created with Vectornator (http://vectornator.io/) -->
<svg height="100%" stroke-miterlimit="10" style="fill-rule:nonzero;clip-rule:evenodd;stroke-linecap:round;stroke-linejoin:round;" version="1.1" viewBox="0 0 1024 1024" width="100%" xml:space="preserve" xmlns="http://www.w3.org/2000/svg" xmlns:xlink="http://www.w3.org/1999/xlink">
<defs>
<clipPath id="TextBounds">
<rect height="1446.28" transform="matrix(0.74217 -0.670211 0.670211 0.74217 -222.774 529.125)" width="1446.28" x="-166.334" y="-243.396"/>
</clipPath>
<clipPath id="TextBounds_2">
<rect height="1446.28" transform="matrix(0.74217 -0.670211 0.670211 0.74217 -275.138 888.004)" width="1446.28" x="113.053" y="-474.65"/>
</clipPath>
<clipPath id="TextBounds_3">
<rect height="1443.63" transform="matrix(0.760726 -0.649074 0.649074 0.760726 -155.117 156.741)" width="1443.63" x="-444.914" y="-18.5546"/>
</clipPath>
</defs>
<clipPath id="ArtboardFrame">
<rect height="1024" width="1024" x="0" y="0"/>
</clipPath>
<g clip-path="url(#ArtboardFrame)" id="Layer-1">
<g opacity="1">
<path d="M2.84217e-14 0L1024 0L1024 1024L2.84217e-14 1024L2.84217e-14 0Z" fill="#000000" fill-rule="nonzero" opacity="1" stroke="#ff0000" stroke-linecap="butt" stroke-linejoin="round" stroke-opacity="0.0223289" stroke-width="130.194"/>
<text clip-path="url(#TextBounds)" fill="#ffffff" font-family="HackNerdFontComplete-Regular" font-size="1000" opacity="1" stroke="none" text-anchor="middle" transform="matrix(0.74217 0.670211 -0.670211 0.74217 519.962 -243.396)" x="0" y="0">
<tspan textLength="602.051" x="512" y="928">S</tspan>
</text>
<text clip-path="url(#TextBounds_2)" fill="#ffffff" font-family="HackNerdFontComplete-Regular" font-size="1000" opacity="1" stroke="none" text-anchor="middle" transform="matrix(0.74217 0.670211 -0.670211 0.74217 799.349 -474.65)" x="0" y="0">
<tspan textLength="602.051" x="512" y="928">S</tspan>
</text>
<text clip-path="url(#TextBounds_3)" fill="#ffffff" font-family="HackNerdFontComplete-Regular" font-size="1000" opacity="1" stroke="none" text-anchor="middle" transform="matrix(0.760726 0.649074 -0.649074 0.760726 219.738 -18.5546)" x="0" y="0">
<tspan textLength="602.051" x="512" y="928">S</tspan>
</text>
</g>
</g>
</svg>
